<?xml version="1.0" encoding="UTF-8"?>
<svg version="1.1" xmlns="http://www.w3.org/2000/svg" width="1162" height="215">
<path d="M0 0 C0.71922134 -0.00700928 1.43844269 -0.01401855 2.17945862 -0.02124023 C4.56363315 -0.03887682 6.94662327 -0.02716496 9.33081055 -0.01367188 C10.99692511 -0.01636843 12.66303814 -0.02025221 14.32914734 -0.02526855 C17.83058576 -0.0311739 21.33161674 -0.02257965 24.83300781 -0.00390625 C29.28338198 0.01869011 33.73278088 0.00589143 38.18311787 -0.01819611 C41.63139405 -0.0327934 45.07944727 -0.02798182 48.52773094 -0.01768494 C50.16569322 -0.01504569 51.80367681 -0.01818685 53.44161415 -0.02760315 C66.45735542 -0.08592215 78.74414539 1.07698885 89.9050293 8.51757812 C89.9050293 9.17757812 89.9050293 9.83757813 89.9050293 10.51757812 C90.78674805 10.90236328 90.78674805 10.90236328 91.6862793 11.29492188 C98.52812928 15.06516667 102.40886482 22.37801092 104.9050293 29.51757812 C108.04293895 40.59949005 106.84389701 54.2812868 101.36987305 64.33789062 C99.93580095 66.77208392 98.45685453 69.1571967 96.9050293 71.51757812 C97.5856543 71.97132812 98.2662793 72.42507812 98.9675293 72.89257812 C107.15731842 80.21111309 112.35485832 89.86929958 113.14331055 100.83007812 C113.37827797 112.50424909 111.91293441 123.32340978 104.0144043 132.52148438 C89.25153068 146.491537 70.72724262 147.83573944 51.4675293 147.85351562 C49.81274301 147.85995669 48.15795783 147.86668598 46.50317383 147.87368774 C43.06076409 147.88557516 39.61845416 147.88937657 36.17602539 147.88818359 C31.7664775 147.88797885 27.35756285 147.91547789 22.94816589 147.94972801 C19.54238937 147.9719385 16.13676806 147.97602324 12.73092651 147.97496414 C11.1042153 147.97732133 9.47749989 147.9861516 7.8508606 148.00162888 C5.58460165 148.0212068 3.31974792 148.01548875 1.0534668 148.00341797 C-0.23382324 148.00626801 -1.52111328 148.00911804 -2.84741211 148.01205444 C-6.64280024 147.43416509 -7.81948117 146.55029487 -10.0949707 143.51757812 C-10.89214946 140.05304291 -10.69836968 136.56376039 -10.6574707 133.01757812 C-10.69324219 131.59251953 -10.69324219 131.59251953 -10.72973633 130.13867188 C-10.72780273 129.22214844 -10.72586914 128.305625 -10.72387695 127.36132812 C-10.72460205 126.52794922 -10.72532715 125.69457031 -10.72607422 124.8359375 C-9.78687364 121.38578328 -8.06665117 120.43348675 -5.0949707 118.51757812 C-1.66227722 118.0255127 -1.66227722 118.0255127 2.32226562 118.03515625 C3.41599236 118.02928749 3.41599236 118.02928749 4.53181458 118.02330017 C6.10921683 118.01733961 7.68667425 118.02046917 9.26404762 118.03172302 C11.76639353 118.04903101 14.26758867 118.04145205 16.76994324 118.02746582 C22.98550553 117.99785901 29.20084632 118.01097724 35.41644287 118.02264404 C40.66944403 118.03087105 45.92194157 118.02280913 51.17487144 117.99351501 C53.63007427 117.98645603 56.0843735 118.00305562 58.539505 118.02062988 C67.16712572 118.01836986 74.30509643 117.98973508 80.8737793 111.60351562 C82.93721672 107.42974447 82.59184664 103.03094923 81.9050293 98.51757812 C80.14710723 94.62671061 77.35266231 92.76721961 73.6550293 90.70507812 C65.22382341 88.03519626 56.42703621 88.37180962 47.667593 88.34891319 C45.46875778 88.34165917 43.27013452 88.32593424 41.07136536 88.30757141 C34.82690059 88.25547405 28.58256884 88.20705113 22.33789062 88.19165039 C18.50176151 88.18157523 14.66619346 88.15228633 10.83028603 88.11033058 C9.37389679 88.09803222 7.91742845 88.09289722 6.460989 88.09512901 C4.42949867 88.09747939 2.39803046 88.0731391 0.36669922 88.04760742 C-0.78752029 88.04174118 -1.94173981 88.03587494 -3.13093567 88.02983093 C-6.71610897 87.41023128 -7.89630595 86.36097852 -10.0949707 83.51757812 C-10.61254883 81.29101562 -10.61254883 81.29101562 -10.6262207 78.89257812 C-10.63137695 78.02117187 -10.6365332 77.14976563 -10.6418457 76.25195312 C-10.62637695 75.34960938 -10.6109082 74.44726562 -10.5949707 73.51757812 C-10.61043945 72.61523438 -10.6259082 71.71289062 -10.6418457 70.78320312 C-10.63668945 69.91179687 -10.6315332 69.04039063 -10.6262207 68.14257812 C-10.62170898 67.35109375 -10.61719727 66.55960937 -10.61254883 65.74414062 C-9.88315518 62.60637172 -8.60391854 61.51416766 -6.0949707 59.51757812 C-3.09970093 59.0255127 -3.09970093 59.0255127 0.44262695 59.03515625 C1.09039093 59.03124374 1.73815491 59.02733124 2.4055481 59.02330017 C3.80889541 59.01733426 5.21230471 59.02047896 6.61561966 59.03172302 C8.84544119 59.04903267 11.0739712 59.04145032 13.30380249 59.02746582 C18.8457118 58.99785508 24.38737357 59.01094265 29.92932129 59.02264404 C34.60764029 59.03089357 39.28539492 59.02270791 43.96363449 58.99351501 C46.1451227 58.98648591 48.32558157 59.00302085 50.50698853 59.02062988 C59.00604442 59.018284 67.61155816 58.6847707 74.0300293 52.45507812 C75.83149808 46.40729008 75.93240799 40.6864887 73.2175293 34.95507812 C69.97931023 31.54182019 67.35834295 30.63396836 62.67993164 30.2592926 C61.46257324 30.25501755 60.24521484 30.25074249 58.9909668 30.24633789 C58.31551819 30.24111115 57.64006958 30.2358844 56.94415283 30.23049927 C55.48462229 30.22029602 54.02505573 30.2144853 52.56549072 30.21261787 C50.25320592 30.20894173 47.94134523 30.19218253 45.62915039 30.17185974 C39.0577788 30.11655932 32.48634607 30.08574955 25.91479492 30.0612793 C21.88886397 30.04538738 17.86323679 30.01515587 13.83746338 29.97651482 C12.30653105 29.96488375 10.77554438 29.95893463 9.24456787 29.95883369 C7.10242037 29.9586412 4.9611091 29.94034526 2.8190918 29.91821289 C1.6017334 29.91314224 0.384375 29.90807159 -0.86987305 29.90284729 C-4.38664627 29.48273465 -6.28091101 28.63100516 -9.0949707 26.51757812 C-10.90961775 22.88828402 -10.32255319 18.63849926 -10.3449707 14.64257812 C-10.3655957 13.73121094 -10.3862207 12.81984375 -10.4074707 11.88085938 C-10.41262695 11.00042969 -10.4177832 10.12 -10.4230957 9.21289062 C-10.43244141 8.40867676 -10.44178711 7.60446289 -10.45141602 6.77587891 C-9.44638931 0.40841516 -5.8400317 0.01428262 0 0 Z " fill="#FEFEFE" transform="translate(385.094970703125,34.482421875)"/>
<path d="M0 0 C1.258125 -0.020625 2.51625 -0.04125 3.8125 -0.0625 C5.01648438 -0.06765625 6.22046875 -0.0728125 7.4609375 -0.078125 C8.57001465 -0.0874707 9.6790918 -0.09681641 10.82177734 -0.10644531 C13.625 0.25 13.625 0.25 15.31982422 1.3527832 C17.17258429 4.0459741 18.42024149 6.93059629 19.671875 9.93359375 C19.95942154 10.60746124 20.24696808 11.28132874 20.54322815 11.97561646 C21.49430772 14.20994846 22.43469473 16.44861471 23.375 18.6875 C24.04659157 20.27162676 24.71872014 21.85552596 25.39135742 23.43920898 C30.26732934 34.94071915 35.06389643 46.47568417 39.85101318 58.0144043 C46.20517273 73.32832844 52.7201657 88.57186683 59.2724762 103.80192566 C59.97735035 105.44266071 60.68020538 107.08426478 61.38096619 108.72676086 C63.27179138 113.15019058 65.20697052 117.54792506 67.20019531 121.92626953 C67.62209137 122.86853897 68.04398743 123.81080841 68.47866821 124.78163147 C69.28917561 126.59034283 70.11283805 128.39323722 70.95175171 130.18894958 C73.1871139 135.22241795 74.39397605 138.76269714 72.625 144.25 C69.52442043 147.27604339 67.23327241 147.62853883 62.97657776 147.64440918 C61.8255658 147.65575897 60.67455383 147.66710876 59.48866272 147.67880249 C58.22984787 147.67587189 56.97103302 147.67294128 55.67407227 147.66992188 C54.33185113 147.67726315 52.98963631 147.68584955 51.64743042 147.69558716 C48.00482984 147.7178056 44.36245545 147.72073372 40.71979642 147.71883965 C37.67800479 147.71871996 34.63626112 147.72728311 31.59448284 147.73561716 C24.41801787 147.75485225 17.24166923 147.75773462 10.06518555 147.75097656 C2.66347669 147.74433465 -4.73773397 147.76720545 -12.13934177 147.80429029 C-18.49616508 147.83498385 -24.85282808 147.84634775 -31.20972401 147.84245348 C-35.00555842 147.84038566 -38.80100513 147.84586959 -42.59676933 147.87034607 C-46.16666085 147.89260569 -49.73574217 147.89074321 -53.30563736 147.87041855 C-55.23816496 147.86538167 -57.1707076 147.88503262 -59.10313416 147.90542603 C-68.55276762 147.81362836 -68.55276762 147.81362836 -71.68885803 144.91711426 C-73.375 142.25 -73.375 142.25 -73.43359375 138.9609375 C-72.19879581 134.63231002 -70.50916265 130.85699228 -68.4375 126.875 C-68.07720703 126.15183594 -67.71691406 125.42867188 -67.34570312 124.68359375 C-64.6472821 119.38614105 -64.6472821 119.38614105 -62.375 118.25 C-59.41514844 118.15655684 -56.47897324 118.12426765 -53.51904297 118.13647461 C-52.60191528 118.13632858 -51.6847876 118.13618256 -50.73986816 118.1360321 C-47.69895081 118.13673052 -44.6580942 118.1445196 -41.6171875 118.15234375 C-39.51254307 118.15420818 -37.4078982 118.15563197 -35.30325317 118.15663147 C-29.75643725 118.16045465 -24.2096474 118.17028326 -18.6628418 118.18133545 C-13.0057002 118.19155384 -7.34855441 118.19613001 -1.69140625 118.20117188 C9.41407397 118.21190569 20.51953482 118.22897974 31.625 118.25 C19.70267146 89.60557205 19.70267146 89.60557205 7.6875 61 C6.98495846 59.33336182 6.28248492 57.66669498 5.58007812 56 C3.929152 52.08300964 2.27736732 48.1663826 0.625 44.25 C-1.4250457 46.3000457 -2.01169022 47.50107019 -3.0390625 50.15234375 C-3.35230469 50.950354 -3.66554688 51.74836426 -3.98828125 52.57055664 C-4.32214844 53.43414795 -4.65601563 54.29773926 -5 55.1875 C-5.71992463 57.0187918 -6.44131447 58.84950816 -7.1640625 60.6796875 C-7.53176758 61.61135742 -7.89947266 62.54302734 -8.27832031 63.50292969 C-10.86669006 69.98653084 -13.62396914 76.39995303 -16.35302734 82.82519531 C-17.43228363 85.3859152 -18.49318191 87.95370214 -19.55078125 90.5234375 C-19.90849609 91.38767334 -20.26621094 92.25190918 -20.63476562 93.14233398 C-21.3188707 94.7962754 -21.99879831 96.4519531 -22.67382812 98.10961914 C-22.98384766 98.85590576 -23.29386719 99.60219238 -23.61328125 100.37109375 C-23.88180908 101.0252124 -24.15033691 101.67933105 -24.42700195 102.35327148 C-25.57419881 104.64855152 -26.5743949 106.40047775 -28.375 108.25 C-30.96289063 108.76757812 -30.96289063 108.76757812 -34.03125 108.78125 C-35.13597656 108.78640625 -36.24070313 108.7915625 -37.37890625 108.796875 C-38.53261719 108.78140625 -39.68632812 108.7659375 -40.875 108.75 C-42.02871094 108.76546875 -43.18242187 108.7809375 -44.37109375 108.796875 C-45.47582031 108.79171875 -46.58054688 108.7865625 -47.71875 108.78125 C-49.23758789 108.77448242 -49.23758789 108.77448242 -50.78710938 108.76757812 C-53.375 108.25 -53.375 108.25 -55.22387695 106.45410156 C-57.20305134 102.66449681 -56.37951603 99.2184924 -55.375 95.25 C-53.53387959 90.06736801 -51.38019369 85.04168745 -49.1875 80 C-48.61548636 78.65799919 -48.04451614 77.31555314 -47.47460938 75.97265625 C-44.89463659 69.92130027 -42.23842015 63.91535066 -39.44921875 57.95703125 C-35.11961713 48.65693538 -31.26204722 39.15121497 -27.33398438 29.67651367 C-15.04228467 0.06127204 -15.04228467 0.06127204 0 0 Z " fill="#FEFEFE" transform="translate(267.375,34.75)"/>
<path d="M0 0 C0.92876953 0.00185303 1.85753906 0.00370605 2.81445312 0.00561523 C3.82894531 0.0049707 4.8434375 0.00432617 5.88867188 0.00366211 C6.94699219 0.02364258 8.0053125 0.04362305 9.09570312 0.06420898 C10.15402344 0.05711914 11.21234375 0.0500293 12.30273438 0.04272461 C20.09935606 0.10711856 20.09935606 0.10711856 22.359375 1.90380859 C24.73450532 4.97356135 24.72832072 7.08283597 24.74960327 10.90962219 C24.75820374 12.05788483 24.7668042 13.20614746 24.77566528 14.38920593 C24.77992523 15.65521133 24.78418518 16.92121674 24.78857422 18.22558594 C24.79647472 19.56750705 24.80474364 20.90942603 24.81335449 22.25134277 C24.83957996 26.6642046 24.85488231 31.07707595 24.86914062 35.48999023 C24.87450003 37.00856215 24.87987754 38.52713401 24.88527298 40.0457058 C24.90690219 46.36201435 24.92563934 52.67832034 24.93689537 58.99465656 C24.95313765 68.04975243 24.98632117 77.10441939 25.04329622 86.15935355 C25.08198323 92.52459991 25.10152654 98.88973148 25.10681593 105.25509232 C25.11047107 109.05770567 25.12250856 112.85986162 25.15491867 116.66234779 C25.18497831 120.24036349 25.19131937 123.81764458 25.17953491 127.39575958 C25.17920874 129.33311839 25.20368853 131.27043172 25.22891235 133.20762634 C25.16079277 142.67996019 25.16079277 142.67996019 22.21122742 145.7817688 C19.39644056 147.63274187 17.9886875 148.13353473 14.65429688 148.13061523 C13.74099609 148.13254883 12.82769531 148.13448242 11.88671875 148.13647461 C10.94505859 148.11262695 10.00339844 148.0887793 9.03320312 148.06420898 C7.61491211 148.08064453 7.61491211 148.08064453 6.16796875 148.09741211 C-0.75017532 148.02407489 -0.75017532 148.02407489 -3.51982117 145.81230164 C-5.84062198 142.96672221 -5.89171477 141.63026006 -5.85839844 137.9987793 C-5.85791504 136.8826123 -5.85743164 135.76644531 -5.85693359 134.61645508 C-5.82623779 132.86582764 -5.82623779 132.86582764 -5.79492188 131.07983398 C-5.79089355 130.00266113 -5.78686523 128.92548828 -5.78271484 127.81567383 C-5.76179606 123.7941788 -5.70595058 119.77292668 -5.65429688 115.75170898 C-5.57179688 106.75920898 -5.48929688 97.76670898 -5.40429688 88.50170898 C-26.19429687 88.50170898 -46.98429687 88.50170898 -68.40429688 88.50170898 C-68.24604665 106.42236054 -68.24604665 106.42236054 -68.04394531 124.3425293 C-68.03226344 126.58828981 -68.02207044 128.83405879 -68.01367188 131.07983398 C-67.99320801 132.24691895 -67.97274414 133.41400391 -67.95166016 134.61645508 C-67.95117676 135.73262207 -67.95069336 136.84878906 -67.95019531 137.9987793 C-67.94131287 138.96696594 -67.93243042 139.93515259 -67.92327881 140.93267822 C-68.54389692 144.24728767 -69.80228316 145.42721515 -72.40429688 147.50170898 C-74.72265625 148.00341797 -74.72265625 148.00341797 -77.24804688 147.99780273 C-78.16457031 147.99844727 -79.08109375 147.9990918 -80.02539062 147.99975586 C-80.97542969 147.97977539 -81.92546875 147.95979492 -82.90429688 147.93920898 C-83.85433594 147.94629883 -84.804375 147.95338867 -85.78320312 147.96069336 C-93.94753576 147.88605459 -93.94753576 147.88605459 -97.40429688 144.50170898 C-98.72329671 140.85864224 -98.53823041 137.17026219 -98.54956055 133.33398438 C-98.55291916 132.61966751 -98.55627777 131.90535065 -98.55973816 131.16938782 C-98.56922183 128.81269584 -98.57118988 126.45607509 -98.57226562 124.09936523 C-98.5754797 122.45796174 -98.57884388 120.81655853 -98.58235168 119.17515564 C-98.58833626 115.73622982 -98.59019224 112.2973291 -98.58959961 108.85839844 C-98.58949795 104.45564015 -98.60315654 100.053043 -98.62037182 95.65032291 C-98.63149872 92.26081098 -98.63351861 88.87133794 -98.63298988 85.48180962 C-98.63416871 83.85873293 -98.63858504 82.23565519 -98.64632225 80.61259651 C-98.65613734 78.34122595 -98.65323836 76.0702045 -98.6472168 73.79882812 C-98.64864182 72.50739395 -98.65006683 71.21595978 -98.65153503 69.88539124 C-98.32891338 65.47001636 -97.54986189 62.647274 -94.40429688 59.50170898 C-91.57256592 59.31353499 -88.83938936 59.24997519 -86.00732422 59.2746582 C-85.13896439 59.27436615 -84.27060455 59.2740741 -83.37593079 59.27377319 C-80.49726469 59.27516981 -77.61885541 59.29074656 -74.74023438 59.30639648 C-72.74769228 59.31012544 -70.75514835 59.31297296 -68.76260376 59.31497192 C-63.51166748 59.32261767 -58.26084139 59.34227422 -53.00994873 59.36437988 C-47.65443411 59.38481808 -42.29890173 59.3939693 -36.94335938 59.40405273 C-26.43029006 59.42551923 -15.91730262 59.45966649 -5.40429688 59.50170898 C-5.41428963 58.48146637 -5.41428963 58.48146637 -5.42448425 57.44061279 C-5.49080161 50.36809003 -5.53608267 43.29565544 -5.5690918 36.22290039 C-5.58418778 33.58256442 -5.60466641 30.94225356 -5.63061523 28.30200195 C-5.66696178 24.50913296 -5.68401533 20.71659522 -5.69726562 16.92358398 C-5.71274948 15.74117126 -5.72823334 14.55875854 -5.7441864 13.34051514 C-5.74441299 12.2396759 -5.74463959 11.13883667 -5.74487305 10.00463867 C-5.7548658 8.5523587 -5.7548658 8.5523587 -5.76506042 7.07073975 C-5.22312022 3.21153321 -3.9187794 0.8177388 0 0 Z " fill="#FEFEFE" transform="translate(1106.404296875,34.498291015625)"/>
<path d="M0 0 C1.07878418 0.01047363 2.15756836 0.02094727 3.26904297 0.03173828 C5.01894531 0.04140625 5.01894531 0.04140625 6.80419922 0.05126953 C8.02751953 0.06802734 9.25083984 0.08478516 10.51123047 0.10205078 C11.74228516 0.11107422 12.97333984 0.12009766 14.24169922 0.12939453 C17.29006862 0.1530253 20.33805429 0.18597024 23.38623047 0.22705078 C24.04623047 1.54705078 24.70623047 2.86705078 25.38623047 4.22705078 C26.04623047 4.22705078 26.70623047 4.22705078 27.38623047 4.22705078 C28.890159 6.13181976 30.26909788 8.03886894 31.63623047 10.03955078 C32.5396668 11.33357617 33.44470247 12.62648599 34.35107422 13.91845703 C34.83946777 14.61600098 35.32786133 15.31354492 35.83105469 16.03222656 C38.56366568 19.88876861 41.38480879 23.67965647 44.19873047 27.47705078 C48.79984094 33.69977214 53.36552081 39.94568 57.88623047 46.22705078 C64.04800185 54.78444249 70.29594213 63.27635936 76.56298828 71.75683594 C78.49428337 74.37344597 80.42120359 76.99323365 82.34716797 79.61376953 C82.99177979 80.4904126 83.6363916 81.36705566 84.30053711 82.27026367 C85.5451005 83.96302995 86.78909852 85.65621208 88.0324707 87.34985352 C88.58878174 88.10596924 89.14509277 88.86208496 89.71826172 89.64111328 C90.21044189 90.31094238 90.70262207 90.98077148 91.2097168 91.67089844 C92.29846835 93.18515684 92.29846835 93.18515684 93.38623047 94.22705078 C93.39502983 92.52696114 93.39502983 92.52696114 93.40400696 90.79252625 C93.46115916 80.12411515 93.53388125 69.45590937 93.62194538 58.78770733 C93.66671974 53.30274098 93.70596021 47.81785012 93.73266602 42.33276367 C93.75862857 37.04176813 93.79898073 31.75106202 93.84941673 26.46024513 C93.86613325 24.43922328 93.87761763 22.41815132 93.88384438 20.39706993 C93.89343354 17.57145033 93.92143012 14.74657927 93.95385742 11.92114258 C93.95170479 10.66094551 93.95170479 10.66094551 93.94950867 9.37528992 C94.04266891 3.65547575 94.04266891 3.65547575 95.76088238 1.51284504 C98.05485355 -0.30188928 99.70598417 -0.1608248 102.60498047 -0.17138672 C103.61947266 -0.17525391 104.63396484 -0.17912109 105.67919922 -0.18310547 C106.73751953 -0.17150391 107.79583984 -0.15990234 108.88623047 -0.14794922 C109.94455078 -0.15955078 111.00287109 -0.17115234 112.09326172 -0.18310547 C113.615 -0.17730469 113.615 -0.17730469 115.16748047 -0.17138672 C116.56063477 -0.16631104 116.56063477 -0.16631104 117.98193359 -0.16113281 C120.91766414 0.31285293 121.61585778 0.869363 123.38623047 3.22705078 C123.76375389 5.77424622 123.76375389 5.77424622 123.7671814 8.88256836 C123.77564087 10.06033844 123.78410034 11.23810852 123.79281616 12.4515686 C123.78370712 14.39197525 123.78370712 14.39197525 123.77441406 16.37158203 C123.77847875 17.74645403 123.78382005 19.12132277 123.79034424 20.4961853 C123.80403605 24.23170841 123.79871163 27.96698331 123.78920698 31.70251083 C123.78161999 35.60889106 123.78865332 39.51524981 123.79336548 43.42163086 C123.79882584 49.98213523 123.79162409 56.54253834 123.77734375 63.10302734 C123.76101664 70.69152218 123.76630495 78.27977522 123.78282297 85.8682642 C123.79642988 92.3795914 123.79836141 98.89084575 123.79050696 105.40218258 C123.78582604 109.29287111 123.78521701 113.18344594 123.79511642 117.0741272 C123.80377232 120.73166873 123.79778976 124.38889805 123.78043365 128.04640579 C123.77456408 130.03177713 123.7834961 132.01717482 123.79281616 134.00253296 C123.78012695 135.76918808 123.78012695 135.76918808 123.7671814 137.5715332 C123.76605032 138.59727951 123.76491924 139.62302582 123.76375389 140.67985535 C123.38623047 143.22705078 123.38623047 143.22705078 122.04992104 145.01802063 C117.85108462 148.06938122 112.95448643 147.41083963 108.01123047 147.41455078 C107.16044922 147.42679688 106.30966797 147.43904297 105.43310547 147.45166016 C97.05851874 147.47122695 97.05851874 147.47122695 93.38623047 145.22705078 C91.16748047 142.82080078 91.16748047 142.82080078 88.88623047 139.72705078 C88.46245117 139.15809082 88.03867188 138.58913086 87.60205078 138.00292969 C86.18273901 136.08752298 84.78293206 134.15899842 83.38623047 132.22705078 C82.89058594 131.54481445 82.39494141 130.86257812 81.88427734 130.15966797 C79.18925798 126.44762803 76.50704915 122.72661051 73.83154297 119.00048828 C70.26625772 114.04517232 66.64136343 109.13495563 63.01123047 104.22705078 C49.38623047 85.76526898 49.38623047 85.76526898 49.38623047 83.22705078 C48.72623047 83.22705078 48.06623047 83.22705078 47.38623047 83.22705078 C46.10913086 81.57250977 46.10913086 81.57250977 44.67138672 79.28564453 C41.5679878 74.47410779 38.24374221 69.87936199 34.82373047 65.28955078 C29.59600086 58.23600053 24.4240888 51.14612033 19.29785156 44.01855469 C14.66590259 37.58913297 9.96464712 31.21204801 5.22998047 24.85791016 C2.42846021 21.07950045 -0.33460038 17.27371304 -3.02392578 13.41455078 C-3.52158447 12.70556641 -4.01924316 11.99658203 -4.53198242 11.26611328 C-5.61376953 9.22705078 -5.61376953 9.22705078 -5.61376953 5.28955078 C-4.42269799 1.64189419 -3.92284968 0.34076688 0 0 Z " fill="#FEFEFE" transform="translate(36.61376953125,34.77294921875)"/>
<path d="M0 0 C0.67807709 -0.0049649 1.35615417 -0.00992981 2.05477905 -0.01504517 C4.30752563 -0.02970105 6.56020178 -0.03647464 8.81298828 -0.04199219 C10.3737895 -0.04774111 11.93459069 -0.05349887 13.49539185 -0.05926514 C16.77232188 -0.06978508 20.04922731 -0.07562113 23.32617188 -0.07910156 C27.5286294 -0.08458647 31.73076293 -0.10860997 35.93311882 -0.13707352 C39.15871128 -0.15568303 42.38422548 -0.1609046 45.6098671 -0.16243744 C47.15924983 -0.16546866 48.70863104 -0.17351297 50.25796127 -0.18662262 C52.42482996 -0.20364757 54.59090437 -0.20181204 56.7578125 -0.1953125 C58.60860916 -0.20078094 58.60860916 -0.20078094 60.49679565 -0.20635986 C63.50830078 0.16113281 63.50830078 0.16113281 65.404953 1.53987122 C67.82292919 5.09285063 66.97497372 9.9587273 66.94580078 14.09863281 C66.96578125 15.10087891 66.98576172 16.103125 67.00634766 17.13574219 C67.00538086 18.5849707 67.00538086 18.5849707 67.00439453 20.06347656 C67.00624756 20.94511475 67.00810059 21.82675293 67.01000977 22.73510742 C66.30254587 26.15606543 65.35122522 27.0982499 62.50830078 29.16113281 C59.24081179 29.72282821 56.01819116 29.62596871 52.71142578 29.55175781 C51.76265564 29.54609802 50.8138855 29.54043823 49.83636475 29.53460693 C46.80982742 29.51223891 43.78447949 29.46204139 40.75830078 29.41113281 C38.70493248 29.39106838 36.65154559 29.37281751 34.59814453 29.35644531 C29.56773922 29.31237262 24.53822157 29.24334173 19.50830078 29.16113281 C19.51106616 29.75620038 19.51383154 30.35126795 19.51668072 30.96436787 C19.58290047 45.43596452 19.63256179 59.90754766 19.6637373 74.37926197 C19.67921383 81.37765248 19.70031822 88.37594193 19.73461914 95.37426758 C19.76768584 102.12398867 19.78513822 108.87358292 19.79293251 115.62338829 C19.79848932 118.2026809 19.80933991 120.78196756 19.82549095 123.36121559 C19.84716643 126.9649781 19.8502718 130.56830228 19.84887695 134.17211914 C19.85966278 135.24601898 19.87044861 136.31991882 19.88156128 137.42636108 C19.87743729 138.40652695 19.87331329 139.38669281 19.86906433 140.39656067 C19.87182971 141.24921918 19.87459509 142.10187769 19.87744427 142.98037434 C19.42379138 145.66038202 18.65697157 146.54212513 16.50830078 148.16113281 C14.10400391 148.54931641 14.10400391 148.54931641 11.28955078 148.55957031 C10.27505859 148.5634375 9.26056641 148.56730469 8.21533203 148.57128906 C7.15701172 148.5596875 6.09869141 148.54808594 5.00830078 148.53613281 C3.94998047 148.54773438 2.89166016 148.55933594 1.80126953 148.57128906 C0.27953125 148.56548828 0.27953125 148.56548828 -1.27294922 148.55957031 C-2.20171875 148.55618652 -3.13048828 148.55280273 -4.08740234 148.54931641 C-6.93480839 148.08959102 -7.7895075 147.45021764 -9.49169922 145.16113281 C-10.52476494 142.06193564 -10.62241367 139.92026638 -10.63214111 136.67092896 C-10.63785126 135.52970581 -10.6435614 134.38848267 -10.64944458 133.212677 C-10.65056244 131.95961761 -10.6516803 130.70655823 -10.65283203 129.41552734 C-10.65779694 128.09663513 -10.66276184 126.77774292 -10.6678772 125.41888428 C-10.68099423 121.79900744 -10.68744467 118.17914915 -10.69188786 114.55925226 C-10.69481942 112.29764589 -10.69892437 110.03604459 -10.70339203 107.77444077 C-10.7170645 100.69818747 -10.72673265 93.62194575 -10.73059392 86.54568017 C-10.73507562 78.37737422 -10.75262966 70.20923554 -10.78159451 62.04098046 C-10.80320809 55.72666554 -10.81329801 49.4123977 -10.81463504 43.09804618 C-10.81568321 39.32687632 -10.82159359 35.55586374 -10.83945465 31.78473282 C-10.85593008 28.23720068 -10.85809359 24.68994415 -10.84931564 21.14238739 C-10.84817786 19.22178648 -10.86189895 17.30119473 -10.87606812 15.38064575 C-10.87049896 14.23378296 -10.86492981 13.08692017 -10.85919189 11.90530396 C-10.86065845 10.91089861 -10.86212502 9.91649326 -10.86363602 8.89195442 C-9.8447875 1.41139977 -6.8123309 0.037747 0 0 Z " fill="#FEFEFE" transform="translate(582.49169921875,34.8388671875)"/>
<path d="M0 0 C4.13585172 4.32696907 3.47977283 8.83544058 3.4375 14.5 C3.45748047 15.45003906 3.47746094 16.40007813 3.49804688 17.37890625 C3.4931964 24.27627584 3.4931964 24.27627584 1.26171875 27.55078125 C-1.03358662 29.02152096 -3.02482785 29.88712128 -5.625 30.6875 C-15.59791119 34.4677923 -22.59574249 42.46470982 -27 52 C-32.33571842 64.33504486 -31.72700966 80.83898399 -27.20703125 93.296875 C-25.48213412 97.15975141 -23.50118465 100.59447823 -21 104 C-20.443125 104.86625 -19.88625 105.7325 -19.3125 106.625 C-14.83337443 111.22518302 -8.98169727 114.28203898 -3.0625 116.6875 C-0.15342416 117.93424679 1.11289497 118.55824958 3 121 C3.63599654 124.61499663 3.46332403 128.27283494 3.4375 131.9375 C3.45748047 132.93974609 3.47746094 133.94199219 3.49804688 134.97460938 C3.49325009 142.1649894 3.49325009 142.1649894 1.41015625 145.69140625 C-2.95294735 148.06035229 -6.728352 147.33071628 -11.39453125 146.1171875 C-30.89112994 139.03156649 -45.12948522 127.40414883 -54.25 108.5625 C-63.74797611 87.03375415 -63.71140411 61.60225403 -55.2421875 39.70703125 C-52.39078214 33.49311958 -48.78761062 27.68141593 -45 22 C-44.34 22 -43.68 22 -43 22 C-42.7525 21.41992188 -42.505 20.83984375 -42.25 20.2421875 C-36.03431241 9.09279789 -22.02505043 3.72565099 -10.61328125 -0.21484375 C-6.60501794 -1.08582853 -3.95394584 -1.07574101 0 0 Z " fill="#FEFEFE" transform="translate(891,36)"/>
<path d="M0 0 C0.99892273 -0.00554901 1.99784546 -0.01109802 3.02703857 -0.01681519 C6.32507467 -0.02861484 9.62173798 -0.00433356 12.91967773 0.02148438 C15.21223386 0.02319531 17.50479194 0.02312997 19.79734802 0.0213623 C24.59995256 0.02301569 29.4020904 0.04171927 34.20458984 0.07324219 C40.36413216 0.11294177 46.52306371 0.11728488 52.68270969 0.10977936 C57.41559964 0.10671183 62.14835196 0.11882217 66.88120842 0.13591003 C69.15262934 0.14294651 71.42406585 0.14606379 73.69549751 0.1452179 C76.86759842 0.14701309 80.0389636 0.1683711 83.2109375 0.1953125 C84.62227211 0.1909166 84.62227211 0.1909166 86.06211853 0.18643188 C92.41621204 0.26981156 92.41621204 0.26981156 95.60923767 2.0357666 C98.97610761 5.75056712 98.25605262 10.79191077 98.29077148 15.55273438 C98.31139648 16.25591797 98.33202148 16.95910156 98.35327148 17.68359375 C98.38706705 22.19107797 97.83334142 25.04318496 95.04077148 28.61523438 C92.75516778 29.75803623 91.46450141 29.75028717 88.92362976 29.76913452 C88.06144836 29.77773499 87.19926697 29.78633545 86.31095886 29.79519653 C84.88883842 29.80158646 84.88883842 29.80158646 83.43798828 29.80810547 C81.94267075 29.8203717 81.94267075 29.8203717 80.41714478 29.83288574 C77.10809943 29.85776089 73.79909702 29.87426048 70.48999023 29.88867188 C68.79757171 29.89665739 68.79757171 29.89665739 67.07096291 29.90480423 C61.10004988 29.93154396 55.12915784 29.95091698 49.15820312 29.96533203 C42.98402433 29.98198935 36.81037833 30.02677443 30.63640118 30.07770348 C25.89493683 30.11132129 21.15359984 30.12290347 16.41202736 30.12855911 C14.13580054 30.13528579 11.85958252 30.15054434 9.5834713 30.17444992 C6.39911547 30.20598846 3.2162086 30.20615489 0.03173828 30.19873047 C-0.91026932 30.2151358 -1.85227692 30.23154114 -2.8228302 30.2484436 C-7.39561635 30.20475322 -9.32753184 30.10620083 -13.04322815 27.21829224 C-15.01141243 24.54433786 -15.59839747 23.40398266 -15.62329102 20.14648438 C-15.62973633 19.32792969 -15.63618164 18.509375 -15.64282227 17.66601562 C-15.62348633 16.82425781 -15.60415039 15.9825 -15.58422852 15.11523438 C-15.60356445 14.27347656 -15.62290039 13.43171875 -15.64282227 12.56445312 C-15.63637695 11.74589844 -15.62993164 10.92734375 -15.62329102 10.08398438 C-15.61765137 9.34599609 -15.61201172 8.60800781 -15.60620117 7.84765625 C-13.29885487 -0.11399455 -6.95029798 -0.09818606 0 0 Z " fill="#FEFEFE" transform="translate(699.959228515625,152.384765625)"/>
<path d="M0 0 C1.52983521 -0.00810448 1.52983521 -0.00810448 3.09057617 -0.01637268 C6.4635922 -0.02888569 9.83575907 -0.01235234 13.20874023 0.00561523 C15.54996282 0.00546032 17.89118566 0.00397258 20.23240662 0.00120544 C25.13926529 -0.00017967 30.04583205 0.01239962 34.95263672 0.03515625 C41.25017021 0.06355653 47.54721911 0.06080064 53.84478855 0.04806614 C58.67884988 0.04112021 63.51279867 0.04888561 68.34684563 0.06132317 C70.66933702 0.06584711 72.99184045 0.06616627 75.31433296 0.06225777 C78.55616261 0.05935584 81.79731793 0.0758037 85.0390625 0.09765625 C86.48619881 0.09090378 86.48619881 0.09090378 87.96257019 0.08401489 C88.84439972 0.09391953 89.72622925 0.10382416 90.63478088 0.11402893 C91.78429906 0.11767377 91.78429906 0.11767377 92.95703983 0.12139225 C95.51470581 0.60829085 96.37298028 1.46607529 97.95483398 3.50170898 C99.17433517 7.16021253 99.17736757 10.56574467 99.20483398 14.37670898 C99.22545898 15.0844043 99.24608398 15.79209961 99.26733398 16.52124023 C99.30111404 21.05621299 98.78134475 23.92234255 95.95483398 27.50170898 C92.87694302 29.55363629 92.23139336 29.75410485 88.75540161 29.77586365 C87.9002597 29.78583878 87.0451178 29.7958139 86.1640625 29.80609131 C84.76136108 29.80708832 84.76136108 29.80708832 83.33032227 29.80810547 C81.84941605 29.82059074 81.84941605 29.82059074 80.33859253 29.83332825 C77.067404 29.85746927 73.7964147 29.8662053 70.52514648 29.87280273 C68.2545465 29.88176571 65.98394713 29.89088749 63.71334839 29.90016174 C58.95024173 29.9166653 54.18720548 29.92435439 49.42407227 29.92724609 C43.31826567 29.9326322 37.21311995 29.9703165 31.10750008 30.01599026 C26.41663186 30.04572014 21.72592358 30.05296877 17.03496933 30.05397224 C14.78387296 30.05818237 12.53277644 30.07064823 10.28177261 30.09148979 C7.13339777 30.11831968 3.98656522 30.11360317 0.83813477 30.10107422 C-0.09295105 30.11590851 -1.02403687 30.1307428 -1.9833374 30.14602661 C-6.52529994 30.09450821 -8.43083571 29.97892289 -12.12342834 27.11050415 C-14.16022329 24.34551657 -14.67718636 23.15577384 -14.67407227 19.77905273 C-14.67600586 18.91086914 -14.67793945 18.04268555 -14.67993164 17.14819336 C-14.65608398 16.25422852 -14.63223633 15.36026367 -14.60766602 14.43920898 C-14.61862305 13.54137695 -14.62958008 12.64354492 -14.64086914 11.71850586 C-14.56914375 5.2871295 -14.56914375 5.2871295 -12.63964844 2.39489746 C-8.64077909 -0.52306926 -4.83084124 -0.04851232 0 0 Z " fill="#FEFEFE" transform="translate(699.045166015625,34.498291015625)"/>
<path d="M0 0 C0.93050171 -0.00700928 1.86100342 -0.01401855 2.81970215 -0.02124023 C5.89572993 -0.03884649 8.97083785 -0.02718794 12.046875 -0.01367188 C14.18392107 -0.01636603 16.32096594 -0.0202478 18.45800781 -0.02526855 C22.93696767 -0.03116718 27.41560847 -0.02258871 31.89453125 -0.00390625 C37.63829952 0.01888325 43.3813202 0.00576216 49.12506104 -0.01819611 C53.53798057 -0.03264409 57.9507226 -0.02805263 62.36364746 -0.01768494 C64.48156828 -0.0150149 66.59950517 -0.01829712 68.71740723 -0.02760315 C71.67662295 -0.03775205 74.63462479 -0.02229048 77.59375 0 C78.47075562 -0.00809692 79.34776123 -0.01619385 80.25134277 -0.02453613 C86.18053806 0.05828625 86.18053806 0.05828625 89.33872986 2.41175842 C91.93836689 6.16609447 91.41339543 10.02858041 91.359375 14.45507812 C91.39514648 15.79602539 91.39514648 15.79602539 91.43164062 17.1640625 C91.42970703 18.03224609 91.42777344 18.90042969 91.42578125 19.79492188 C91.42650635 20.58116943 91.42723145 21.36741699 91.42797852 22.17749023 C90.44905284 25.80727847 88.73509765 27.20135111 85.796875 29.51757812 C82.72142988 30.24744239 79.72160621 30.20144342 76.57202148 30.16455078 C75.19068024 30.17769318 75.19068024 30.17769318 73.78143311 30.19110107 C70.74312978 30.21307458 67.70628638 30.19855055 64.66796875 30.18164062 C62.55477113 30.18500905 60.44157539 30.18986189 58.3283844 30.19613647 C53.90241018 30.2035048 49.47694088 30.19280215 45.05102539 30.16943359 C39.37551722 30.1409288 33.70119031 30.15736143 28.02572536 30.18729591 C23.66338685 30.20535483 19.30132892 30.19961753 14.93898201 30.18665695 C12.84618045 30.18331997 10.75335347 30.18742023 8.66058159 30.19905472 C5.73714477 30.21174192 2.81562763 30.19241669 -0.10766602 30.16455078 C-1.40679176 30.17973251 -1.40679176 30.17973251 -2.73216248 30.19522095 C-8.59508889 30.09158467 -8.59508889 30.09158467 -11.73924255 27.12339783 C-13.26847479 24.40125064 -13.71664179 22.88524994 -13.734375 19.79492188 C-13.73953125 18.92673828 -13.7446875 18.05855469 -13.75 17.1640625 C-13.73453125 16.27009766 -13.7190625 15.37613281 -13.703125 14.45507812 C-13.71859375 13.55724609 -13.7340625 12.65941406 -13.75 11.734375 C-13.74484375 10.86748047 -13.7396875 10.00058594 -13.734375 9.10742188 C-13.72986328 8.32230225 -13.72535156 7.53718262 -13.72070312 6.72827148 C-12.03330078 -0.47900601 -6.09635439 -0.05628438 0 0 Z " fill="#FEFEFE" transform="translate(698.203125,93.482421875)"/>
<path d="M0 0 C2.88319811 1.80308764 5.44141658 3.76831176 8 6 C9.010625 6.763125 10.02125 7.52625 11.0625 8.3125 C19.79592191 16.30265196 27.99783066 27.69631121 29.4375 39.625 C29 43 29 43 27.09765625 45.1796875 C22.7113807 47.75724665 18.99645346 47.58689484 14 47.5 C13.11054687 47.51546875 12.22109375 47.5309375 11.3046875 47.546875 C7.18519598 47.52228102 4.65426734 47.38389461 1.05078125 45.26953125 C-1.00381549 42.99577753 -2.39886465 40.89945905 -3.8125 38.1875 C-8.94482526 29.29757947 -16.20824708 24.23052115 -26.01953125 21.421875 C-26.93798828 21.18210937 -26.93798828 21.18210937 -27.875 20.9375 C-30.91475118 20.02557464 -32.17700581 19.53193638 -34 17 C-35.22117194 13.33648419 -35.18406354 9.93947028 -35.1875 6.125 C-35.19974609 5.41730469 -35.21199219 4.70960937 -35.22460938 3.98046875 C-35.23597676 -0.08905473 -35.15810935 -3.48740159 -33 -7 C-23.24893678 -12.69781036 -8.96981581 -4.75587636 0 0 Z " fill="#FEFEFE" transform="translate(940,43)"/>
<path d="M0 0 C1.11439453 0.00322266 2.22878906 0.00644531 3.37695312 0.00976562 C4.48748047 -0.00634766 5.59800781 -0.02246094 6.7421875 -0.0390625 C8.33836914 -0.0400293 8.33836914 -0.0400293 9.96679688 -0.04101562 C11.43234009 -0.04548706 11.43234009 -0.04548706 12.92749023 -0.05004883 C15.43945312 0.32226562 15.43945312 0.32226562 17.25415039 1.65356445 C19.31977585 4.56160772 18.82638964 6.83983701 18.43945312 10.32226562 C16.75404395 16.71558444 13.50921614 22.04421894 9.81445312 27.44726562 C9.41814697 28.02814941 9.02184082 28.6090332 8.61352539 29.20751953 C7.61149444 30.62052562 6.53131412 31.97746385 5.43945312 33.32226562 C4.77945313 33.32226562 4.11945312 33.32226562 3.43945312 33.32226562 C2.77945313 34.64226562 2.11945312 35.96226562 1.43945312 37.32226562 C0.77945313 37.32226562 0.11945312 37.32226562 -0.56054688 37.32226562 C-0.89054688 38.31226563 -1.22054687 39.30226562 -1.56054688 40.32226562 C-11.44719166 48.01998537 -26.13600082 56.02272311 -39.06054688 55.38476562 C-42.56054688 54.32226562 -42.56054688 54.32226562 -44.25585938 51.75976562 C-45.7463805 47.83264409 -46.00509311 44.39776687 -45.93554688 40.25976562 C-45.94714844 39.56560547 -45.95875 38.87144531 -45.97070312 38.15625 C-45.94545718 33.72558712 -45.40263241 30.7674122 -42.56054688 27.32226562 C-40.65039062 26.35351562 -40.65039062 26.35351562 -38.49804688 25.82226562 C-33.15798505 24.29528716 -28.46636037 21.88955663 -23.56054688 19.32226562 C-22.84511719 19.02449219 -22.1296875 18.72671875 -21.39257812 18.41992188 C-19.04902661 17.01578973 -18.64361381 15.81157269 -17.56054688 13.32226562 C-16.41404682 11.43486695 -15.24582193 9.56055818 -14.06054688 7.69726562 C-13.45210937 6.735625 -12.84367188 5.77398437 -12.21679688 4.78320312 C-8.64896848 -0.51805133 -6.0645094 0.04045458 0 0 Z " fill="#FEFEFE" transform="translate(950.560546875,128.677734375)"/>
<path d="M0 0 C1.44922852 -0.0009668 1.44922852 -0.0009668 2.92773438 -0.00195312 C3.92998047 0.01802734 4.93222656 0.03800781 5.96484375 0.05859375 C6.97095703 0.05150391 7.97707031 0.04441406 9.01367188 0.03710938 C16.41026112 0.10134161 16.41026112 0.10134161 18.65014648 1.89819336 C21.6670236 5.74796148 21.08271113 9.83960485 21.10546875 14.51953125 C21.11116882 15.4172525 21.1168689 16.31497375 21.1227417 17.23989868 C21.1321967 19.14136576 21.13872766 21.04284925 21.14257812 22.94433594 C21.15228172 25.85250463 21.18329931 28.75996607 21.21484375 31.66796875 C21.22137397 33.51431871 21.22662437 35.36067374 21.23046875 37.20703125 C21.24281555 38.07693695 21.25516235 38.94684265 21.2678833 39.84310913 C21.24574891 45.84739763 21.24574891 45.84739763 19.56933594 49.01416016 C15.75259709 52.40718957 10.82909614 51.71555796 6.02734375 51.74609375 C5.22425781 51.76671875 4.42117187 51.78734375 3.59375 51.80859375 C-1.12953356 51.83971918 -4.27158428 51.58695974 -8.09765625 48.49609375 C-9.22423904 46.24292816 -9.24091379 44.97807308 -9.2746582 42.47705078 C-9.28749344 41.64924103 -9.30032867 40.82143127 -9.31355286 39.96853638 C-9.32093979 39.07270844 -9.32832672 38.17688049 -9.3359375 37.25390625 C-9.34400925 36.33398895 -9.35208099 35.41407166 -9.36039734 34.46627808 C-9.37423982 32.51773973 -9.38496124 30.56917712 -9.39282227 28.62060547 C-9.41004796 25.63983313 -9.45393362 22.66016619 -9.49804688 19.6796875 C-9.5081726 17.78776858 -9.51668908 15.89584023 -9.5234375 14.00390625 C-9.54094559 13.11212677 -9.55845367 12.22034729 -9.57649231 11.30154419 C-9.55503034 5.18248177 -9.55503034 5.18248177 -7.38964844 1.93286133 C-4.69244666 0.24208241 -3.16804927 -0.00665861 0 0 Z " fill="#FEFEFE" transform="translate(40.09765625,130.50390625)"/>
<path d="M0 0 C1.06669922 0.00322266 2.13339844 0.00644531 3.23242188 0.00976562 C4.29525391 -0.00634766 5.35808594 -0.02246094 6.453125 -0.0390625 C7.98163086 -0.0400293 7.98163086 -0.0400293 9.54101562 -0.04101562 C10.4761499 -0.04399658 11.41128418 -0.04697754 12.37475586 -0.05004883 C15.29813389 0.39967895 15.99055699 1.02872681 17.79492188 3.32226562 C18.18260193 5.32652283 18.18260193 5.32652283 18.19897461 7.63842773 C18.21165878 8.50620346 18.22434296 9.37397919 18.2374115 10.26805115 C18.23447586 11.20246536 18.23154022 12.13687958 18.22851562 13.09960938 C18.23375748 14.06250381 18.23899933 15.02539825 18.24440002 16.01747131 C18.25082438 18.05419958 18.24947789 20.09096493 18.2409668 22.12768555 C18.23246311 25.24465034 18.26120253 28.35977915 18.29296875 31.4765625 C18.29458099 33.45507758 18.2940028 35.4335959 18.29101562 37.41210938 C18.30786659 38.81069435 18.30786659 38.81069435 18.32505798 40.23753357 C18.25618783 46.63144183 18.25618783 46.63144183 16.06665039 49.91064453 C13.45322737 51.53458992 12.01082591 51.82516255 8.95117188 51.81835938 C8.03464844 51.81900391 7.118125 51.81964844 6.17382812 51.8203125 C5.22378906 51.80033203 4.27375 51.78035156 3.29492188 51.75976562 C2.34488281 51.76685547 1.39484375 51.77394531 0.41601562 51.78125 C-7.74831701 51.70661123 -7.74831701 51.70661123 -11.20507812 48.32226562 C-12.50159029 44.28329491 -12.36699941 40.21441274 -12.37304688 36.01367188 C-12.37637527 35.20993637 -12.37970367 34.40620087 -12.38313293 33.57810974 C-12.38818702 31.88109915 -12.39054173 30.18407866 -12.39038086 28.48706055 C-12.39256741 25.89745654 -12.41073913 23.3082787 -12.4296875 20.71875 C-12.43262177 19.06705874 -12.43460634 17.41536547 -12.43554688 15.76367188 C-12.44273239 14.99269669 -12.44991791 14.2217215 -12.45732117 13.42738342 C-12.41382314 3.14212911 -9.9395229 0.06924303 0 0 Z " fill="#FEFEFE" transform="translate(1020.205078125,34.677734375)"/>
<path d="M0 0 C1.23556641 -0.00515625 2.47113281 -0.0103125 3.74414062 -0.015625 C5.03642578 -0.00015625 6.32871094 0.0153125 7.66015625 0.03125 C9.5927832 0.00804687 9.5927832 0.00804687 11.56445312 -0.015625 C12.80130859 -0.01046875 14.03816406 -0.0053125 15.3125 0 C17.01200806 0.00676758 17.01200806 0.00676758 18.74584961 0.01367188 C22.38670913 0.64670904 23.56861467 1.56172224 25.72265625 4.53125 C26.5136822 7.80939186 26.32619958 11.10561166 26.28515625 14.46875 C26.32092773 15.80969727 26.32092773 15.80969727 26.35742188 17.17773438 C26.34815045 21.34060276 26.04814381 23.94537239 24.00390625 27.625 C18.76270046 30.66989098 13.60559838 30.21389274 7.66015625 30.09375 C6.47615234 30.10470703 5.29214844 30.11566406 4.07226562 30.12695312 C-4.57269315 30.05348322 -4.57269315 30.05348322 -7.61523438 27.79858398 C-9.54367258 25.16794274 -9.78061143 23.91389549 -9.7734375 20.6875 C-9.7744043 19.31271484 -9.7744043 19.31271484 -9.77539062 17.91015625 C-9.75541016 16.96011719 -9.73542969 16.01007812 -9.71484375 15.03125 C-9.72193359 14.08121094 -9.72902344 13.13117187 -9.73632812 12.15234375 C-9.67390647 5.32437545 -9.67390647 5.32437545 -8.14257812 2.26171875 C-5.47309966 -0.2148864 -3.60092258 0.01435345 0 0 Z " fill="#FEFEFE" transform="translate(535.27734375,34.46875)"/>
</svg>
